<?xml version="1.0" standalone="no"?>
<!DOCTYPE svg PUBLIC "-//W3C//DTD SVG 20010904//EN"
 "http://www.w3.org/TR/2001/REC-SVG-20010904/DTD/svg10.dtd">
<svg version="1.0" xmlns="http://www.w3.org/2000/svg"
 width="896.000000pt" height="896.000000pt" viewBox="0 0 896.000000 896.000000"
 preserveAspectRatio="xMidYMid meet">
<metadata>
Created by potrace 1.14, written by Peter Selinger 2001-2017
</metadata>
<g transform="translate(0.000000,896.000000) scale(0.100000,-0.100000)"
fill="#000000" stroke="none">
<path d="M839 8315 c-3 -2 -20 -6 -38 -7 -18 -1 -35 -6 -37 -10 -3 -5 -9 -6
-13 -3 -10 6 -190 -53 -211 -69 -8 -6 -41 -25 -72 -41 -32 -17 -58 -33 -58
-37 0 -4 -12 -14 -27 -22 -34 -18 -138 -117 -178 -171 -16 -22 -32 -42 -36
-45 -3 -3 -9 -12 -12 -20 -4 -8 -18 -33 -32 -55 -33 -53 -51 -95 -80 -185 -36
-111 -40 -141 -39 -300 1 -125 4 -164 14 -190 1 -3 2 -8 1 -12 0 -4 4 -20 10
-35 6 -15 13 -39 15 -52 3 -13 12 -37 20 -52 8 -16 11 -29 7 -29 -5 0 -3 -4 2
-8 6 -4 26 -38 45 -77 19 -38 38 -72 42 -75 3 -3 21 -31 40 -62 18 -32 74
-123 123 -203 50 -80 96 -157 103 -170 7 -13 33 -55 57 -92 25 -37 45 -74 45
-80 0 -7 5 -13 10 -13 6 0 10 -7 10 -15 0 -8 4 -15 8 -15 5 0 16 -15 25 -32 9
-18 28 -51 42 -73 13 -22 29 -49 35 -60 6 -11 23 -39 38 -63 15 -23 69 -111
120 -195 51 -83 133 -217 182 -297 50 -80 93 -152 97 -160 4 -8 17 -29 30 -46
13 -17 23 -33 23 -37 0 -5 122 -206 168 -277 9 -14 17 -27 17 -30 0 -3 13 -23
27 -45 32 -48 155 -248 200 -325 17 -30 35 -57 38 -60 4 -3 9 -10 11 -16 2 -6
45 -77 94 -158 50 -81 97 -160 106 -174 61 -102 145 -238 149 -242 3 -3 11
-16 18 -30 7 -14 25 -45 42 -70 31 -48 102 -169 109 -185 2 -5 12 -18 23 -29
10 -11 18 -26 18 -33 0 -7 5 -13 10 -13 6 0 10 -5 10 -11 0 -7 17 -37 37 -68
21 -31 38 -58 38 -61 0 -3 12 -23 26 -45 14 -22 43 -69 65 -105 21 -36 42 -66
47 -68 4 -2 7 -7 7 -12 0 -4 36 -67 80 -139 44 -73 80 -136 80 -141 0 -6 4
-10 8 -10 5 0 15 -12 23 -28 7 -15 28 -49 45 -77 111 -176 304 -497 304 -505
0 -5 5 -10 10 -10 6 0 10 -6 10 -14 0 -8 3 -16 8 -18 4 -1 16 -19 26 -38 11
-19 36 -60 55 -90 20 -30 36 -57 36 -60 0 -3 21 -37 45 -75 63 -99 67 -106 86
-143 9 -17 21 -32 26 -32 5 0 7 -4 4 -9 -4 -5 -3 -11 1 -13 10 -4 73 -107 73
-119 0 -5 3 -9 8 -9 7 0 13 -10 42 -66 8 -16 17 -31 20 -34 4 -3 21 -32 40
-65 19 -33 37 -62 40 -65 4 -3 17 -23 29 -45 12 -22 35 -60 51 -85 16 -25 33
-52 37 -60 3 -8 35 -58 69 -111 66 -101 167 -208 256 -273 105 -76 260 -141
393 -164 46 -8 263 -8 326 0 56 7 235 63 255 79 6 5 33 21 60 35 123 65 280
218 353 345 13 22 177 291 273 446 21 35 38 67 38 73 0 5 3 10 8 10 4 0 20 25
37 55 16 30 33 55 37 55 4 0 8 6 8 14 0 8 6 21 13 28 8 7 16 18 18 24 2 5 56
94 119 197 63 103 120 195 125 205 6 10 29 48 53 84 23 37 42 72 42 77 0 4 6
14 14 20 8 7 22 26 31 44 9 18 24 44 33 59 21 34 143 233 157 256 82 137 101
169 112 180 7 7 13 19 13 26 0 7 9 21 20 31 10 9 18 20 17 24 -1 3 14 31 34
61 19 30 44 71 55 90 10 19 22 37 27 38 4 2 7 10 7 18 0 8 4 14 9 14 5 0 11 6
13 13 2 7 54 96 116 197 62 102 119 194 125 205 7 11 26 42 43 70 109 175 194
318 194 326 0 5 4 9 9 9 5 0 11 8 15 18 3 9 14 29 23 44 10 15 36 57 59 95
106 175 138 228 143 233 4 3 13 19 21 35 8 17 18 32 21 35 3 3 26 38 50 79 24
41 53 89 64 107 11 17 36 58 54 90 19 33 54 89 78 126 24 36 43 71 43 77 0 6
5 11 10 11 6 0 10 7 10 15 0 8 5 15 10 15 6 0 10 5 10 10 0 6 12 29 27 53 15
23 34 54 43 68 19 33 110 182 130 214 8 13 30 50 49 82 18 32 38 61 43 64 5 3
8 8 7 10 -3 4 2 12 67 114 21 33 38 62 39 65 0 3 12 23 26 45 39 61 62 97 79
126 20 35 168 278 202 332 27 42 102 167 135 222 10 17 20 32 23 35 3 3 11 16
18 30 7 14 32 55 55 92 61 98 192 318 210 353 17 35 64 182 75 234 4 20 6 101
6 181 -1 125 -4 164 -14 190 -1 3 -2 8 -1 12 0 4 -4 20 -10 35 -6 15 -13 39
-15 53 -3 14 -25 66 -49 116 -119 243 -313 411 -580 502 -16 6 -43 13 -60 17
-16 4 -39 10 -50 13 -23 8 -7329 15 -7336 7z"/>
</g>
</svg>
