<?xml version="1.0" encoding="UTF-8" standalone="no"?>
<svg
   viewBox="0 0 448.07922 384"
   version="1.1"
   id="svg44"
   sodipodi:docname="play-solid2.svg"
   inkscape:version="1.2.2 (b0a8486541, 2022-12-01)"
   width="448.07922"
   height="384"
   xmlns:inkscape="http://www.inkscape.org/namespaces/inkscape"
   xmlns:sodipodi="http://sodipodi.sourceforge.net/DTD/sodipodi-0.dtd"
   xmlns="http://www.w3.org/2000/svg"
   xmlns:svg="http://www.w3.org/2000/svg">
  <defs
     id="defs48" />
  <sodipodi:namedview
     id="namedview46"
     pagecolor="#ffffff"
     bordercolor="#000000"
     borderopacity="0.25"
     inkscape:showpageshadow="2"
     inkscape:pageopacity="0.0"
     inkscape:pagecheckerboard="0"
     inkscape:deskcolor="#d1d1d1"
     showgrid="false"
     inkscape:zoom="0.60191153"
     inkscape:cx="321.47581"
     inkscape:cy="222.62408"
     inkscape:window-width="1920"
     inkscape:window-height="1005"
     inkscape:window-x="0"
     inkscape:window-y="0"
     inkscape:window-maximized="1"
     inkscape:current-layer="svg44" />
  <!--! Font Awesome Pro 6.4.0 by @fontawesome - https://fontawesome.com License - https://fontawesome.com/license (Commercial License) Copyright 2023 Fonticons, Inc. -->
  <path
     d="m 441.02155,72.999999 c 9.1,-14.8 9.4,-33.4 0.9,-48.499998 C 433.42155,9.4 417.42155,0 400.02155,0 H 48.021552 c -17.4,0 -33.4,9.4 -41.9000003,24.500001 -8.5,15.099998 -8.1,33.699998 0.9,48.499998 L 183.02155,361 c 8.7,14.3 24.2,23 41,23 16.8,0 32.2,-8.7 41,-23 z"
     id="path42"
     style="fill:#c7d5ff;fill-opacity:1" />
  <path
     d="m 441.02155,72.999999 c 9.1,-14.8 9.4,-33.4 0.9,-48.499998 C 433.42155,9.4 417.42155,0 400.02155,0 H 48.021552 c -17.4,0 -33.4,9.4 -41.9000003,24.500001 -8.5,15.099998 -8.1,33.699998 0.9,48.499998 L 183.02155,361 c 8.7,14.3 24.2,23 41,23 16.8,0 32.2,-8.7 41,-23 z"
     id="path3083"
     style="fill:#5a6fac;fill-opacity:1" />
  <path
     d="m 441.02155,72.999999 c 9.1,-14.8 9.4,-33.4 0.9,-48.499998 C 433.42155,9.4 417.42155,0 400.02155,0 H 48.021552 c -17.4,0 -33.4,9.4 -41.9000003,24.500001 -8.5,15.099998 -8.1,33.699998 0.9,48.499998 L 183.02155,361 c 8.7,14.3 24.2,23 41,23 16.8,0 32.2,-8.7 41,-23 z"
     id="path4477"
     style="fill:#5a6fac;fill-opacity:1" />
</svg>
